<svg xmlns="http://www.w3.org/2000/svg" width="46" height="46" viewBox="0 0 46 46">
  <g fill="none" fill-rule="evenodd">
    <path d="M23 9.818c3.15 0 5.97 1.08 8.19 2.85l6.12-6.12C33.45 3.06 28.59 1 23 1 14.82 1 7.59 5.98 3.98 12.44l7.14 5.55C12.18 13.41 17.13 9.818 23 9.818z" fill="#EA4335"/>
    <path d="M44.5 23.5c0-1.56-.14-3.06-.41-4.5H23v9.09h12.09c-.52 2.7-2.09 4.98-4.45 6.53l7.14 5.55C41.98 36.02 44.5 30.27 44.5 23.5z" fill="#4285F4"/>
    <path d="M10.12 27.99A13.98 13.98 0 0 1 9 23c0-1.73.31-3.4.87-4.99l-7.14-5.55A22.97 22.97 0 0 0 1 23c0 3.64.88 7.08 2.43 10.09l7.14-5.1z" fill="#FBBC05"/>
    <path d="M23 45c6.21 0 11.42-2.05 15.23-5.57l-7.14-5.55c-2.01 1.35-4.59 2.14-8.09 2.14-6.27 0-11.6-4.23-13.52-9.99l-7.14 5.1C7.59 40.02 14.82 45 23 45z" fill="#34A853"/>
    <path d="M1 1h44v44H1z"/>
  </g>
</svg> 